<svg width="673" height="591" viewBox="0 0 673 591" fill="none" xmlns="http://www.w3.org/2000/svg">
<path d="M246 41C226.35 39.3005 207.241 38.4666 187.778 42.5555C164.22 47.5046 140.459 56.3546 119.111 67.4444C68.7811 93.5899 36.7129 143.139 19.5556 196C-2.75099 264.725 -7.40653 340.374 27.1111 405.889C79.913 506.107 187.587 556.129 294.222 577.667C410.569 601.166 574.272 594.807 640.111 477.222C672.699 419.022 675.912 344.163 667.278 279.611C662.771 245.919 656.79 222.198 645.889 189.944C632.686 150.881 615.435 111.591 590.111 78.6667C529.395 -0.272003 416.698 -7.12863 326.333 9.99999C278.693 19.0302 235.136 34.4318 192 56" stroke="#FF00C7" stroke-width="3" stroke-linecap="round"/>
</svg>
